<svg width="37" height="36" viewBox="0 0 37 36" fill="none" xmlns="http://www.w3.org/2000/svg">
<path fill-rule="evenodd" clip-rule="evenodd" d="M18.6729 0C8.73173 0 0.672852 8.05888 0.672852 18C0.672852 27.9411 8.73173 36 18.6729 36C28.614 36 36.6729 27.9411 36.6729 18C36.6729 8.05888 28.614 0 18.6729 0ZM14.7154 8.45815C15.7394 8.41155 16.0666 8.40015 18.6738 8.40015H18.6708C21.2788 8.40015 21.6048 8.41155 22.6288 8.45815C23.6508 8.50495 24.3489 8.66675 24.9609 8.90416C25.5929 9.14916 26.1269 9.47716 26.6609 10.0112C27.1949 10.5448 27.5229 11.0804 27.7689 11.7118C28.0049 12.3222 28.1669 13.0198 28.2149 14.0418C28.2609 15.0658 28.2729 15.393 28.2729 18.0003C28.2729 20.6075 28.2609 20.9339 28.2149 21.9579C28.1669 22.9795 28.0049 23.6773 27.7689 24.2879C27.5229 24.9191 27.1949 25.4547 26.6609 25.9883C26.1275 26.5223 25.5927 26.8511 24.9615 27.0963C24.3507 27.3337 23.6522 27.4956 22.6302 27.5424C21.6062 27.589 21.28 27.6004 18.6726 27.6004C16.0656 27.6004 15.7386 27.589 14.7146 27.5424C13.6927 27.4956 12.9949 27.3337 12.3841 27.0963C11.7531 26.8511 11.2175 26.5223 10.6841 25.9883C10.1503 25.4547 9.8223 24.9191 9.5769 24.2877C9.3397 23.6773 9.1779 22.9797 9.1309 21.9577C9.0845 20.9337 9.0729 20.6075 9.0729 18.0003C9.0729 15.393 9.0849 15.0656 9.1307 14.0416C9.1767 13.02 9.3387 12.3222 9.5767 11.7116C9.8227 11.0804 10.1507 10.5448 10.6847 10.0112C11.2183 9.47736 11.7539 9.14936 12.3853 8.90416C12.9957 8.66675 13.6933 8.50495 14.7154 8.45815Z" fill="#214E70"/>
<path fill-rule="evenodd" clip-rule="evenodd" d="M17.8126 10.1303C17.9798 10.1301 18.1597 10.1301 18.3538 10.1302L18.6738 10.1303C21.237 10.1303 21.5408 10.1395 22.553 10.1855C23.489 10.2283 23.997 10.3847 24.3355 10.5161C24.7835 10.6901 25.1029 10.8981 25.4387 11.2341C25.7747 11.5701 25.9827 11.8901 26.1571 12.3382C26.2885 12.6762 26.4451 13.1842 26.4877 14.1202C26.5337 15.1322 26.5437 15.4362 26.5437 17.9982C26.5437 20.5602 26.5337 20.8642 26.4877 21.8763C26.4449 22.8123 26.2885 23.3203 26.1571 23.6583C25.9831 24.1063 25.7747 24.4253 25.4387 24.7611C25.1027 25.0971 24.7837 25.3051 24.3355 25.4791C23.9974 25.6111 23.489 25.7671 22.553 25.8099C21.541 25.8559 21.237 25.8659 18.6738 25.8659C16.1104 25.8659 15.8066 25.8559 14.7946 25.8099C13.8585 25.7667 13.3505 25.6103 13.0119 25.4789C12.5639 25.3049 12.2439 25.0969 11.9079 24.7609C11.5719 24.4249 11.3639 24.1057 11.1895 23.6575C11.0581 23.3195 10.9015 22.8115 10.8589 21.8755C10.8129 20.8634 10.8037 20.5594 10.8037 17.9958C10.8037 15.4322 10.8129 15.1298 10.8589 14.1178C10.9017 13.1818 11.0581 12.6738 11.1895 12.3354C11.3635 11.8873 11.5719 11.5673 11.9079 11.2313C12.2439 10.8953 12.5639 10.6873 13.0119 10.5129C13.3503 10.3809 13.8585 10.2249 14.7946 10.1819C15.6802 10.1419 16.0234 10.1299 17.8126 10.1279V10.1303ZM23.7984 11.7239C23.1624 11.7239 22.6464 12.2393 22.6464 12.8756C22.6464 13.5116 23.1624 14.0276 23.7984 14.0276C24.4344 14.0276 24.9504 13.5116 24.9504 12.8756C24.9504 12.2395 24.4344 11.7235 23.7984 11.7235V11.7239ZM13.7439 17.9998C13.7439 15.2771 15.9513 13.0697 18.6739 13.0697H18.6737C21.3964 13.0697 23.6032 15.2771 23.6032 17.9998C23.6032 20.7224 21.3966 22.9288 18.6739 22.9288C15.9513 22.9288 13.7439 20.7224 13.7439 17.9998Z" fill="#214E70"/>
<path fill-rule="evenodd" clip-rule="evenodd" d="M18.6737 14.7998C20.4409 14.7998 21.8737 16.2324 21.8737 17.9998C21.8737 19.7671 20.4409 21.1999 18.6737 21.1999C16.9062 21.1999 15.4736 19.7671 15.4736 17.9998C15.4736 16.2324 16.9062 14.7998 18.6737 14.7998V14.7998Z" fill="#214E70"/>
</svg>
