<svg width="36" height="36" viewBox="0 0 36 36" fill="none" xmlns="http://www.w3.org/2000/svg">
<path fill-rule="evenodd" clip-rule="evenodd" d="M0 18C0 8.05888 8.05888 0 18 0C27.9411 0 36 8.05888 36 18C36 27.9411 27.9411 36 18 36C8.05888 36 0 27.9411 0 18ZM17.9878 18.2888C20.6421 18.2888 22.7998 16.2058 22.7998 13.645C22.7998 11.0834 20.6421 8.99985 17.9878 8.99985C15.3341 8.99985 13.1759 11.0834 13.1759 13.645C13.1759 16.2058 15.3341 18.2888 17.9878 18.2888ZM22.7412 20.9635C21.8711 21.491 20.9265 21.8651 19.947 22.0805L22.637 24.6774C23.1881 25.2082 23.1881 26.0703 22.637 26.6017C22.0865 27.1331 21.1942 27.1331 20.6443 26.6017L17.9995 24.0498L15.357 26.6017C15.0815 26.8671 14.7204 27 14.3594 27C13.9989 27 13.6385 26.8671 13.3629 26.6017C12.8124 26.0703 12.8124 25.2088 13.3623 24.6774L16.0526 22.0805C15.0731 21.8651 14.1285 21.4904 13.2584 20.9635C12.5999 20.5627 12.4021 19.7231 12.817 19.087C13.2308 18.45 14.1008 18.2582 14.7605 18.659C16.7304 19.8551 19.2681 19.8554 21.2392 18.659C21.8988 18.2582 22.7686 18.45 23.1832 19.087C23.598 19.7226 23.3997 20.5627 22.7412 20.9635Z" fill="#214E70"/>
<path fill-rule="evenodd" clip-rule="evenodd" d="M17.988 11.7222C19.0867 11.7222 19.9804 12.5846 19.9804 13.6451C19.9804 14.7048 19.0867 15.5678 17.988 15.5678C16.8902 15.5678 15.9956 14.7048 15.9956 13.6451C15.9956 12.5846 16.8902 11.7222 17.988 11.7222Z" fill="#214E70"/>
</svg>
