<svg width="28" height="28" viewBox="0 0 28 28" fill="none" xmlns="http://www.w3.org/2000/svg">
<g clip-path="url(#clip0)">
<path d="M26.0895 1.48611C25.3075 0.718723 24.2533 0.292333 23.1576 0.300231C22.0619 0.308128 21.014 0.749669 20.243 1.52825C19.9721 1.79931 18.2303 3.54208 17.9969 3.77555L17.0111 2.7892C16.7284 2.50599 16.3927 2.2813 16.023 2.128C15.6534 1.9747 15.2572 1.89579 14.857 1.89579C14.4568 1.89579 14.0606 1.9747 13.691 2.128C13.3213 2.2813 12.9856 2.50599 12.7028 2.7892L7.51237 7.98236C7.36396 8.13136 7.28071 8.33314 7.28089 8.54344C7.28108 8.75374 7.36467 8.95538 7.51333 9.10412C7.662 9.25286 7.86359 9.33656 8.07389 9.33685C8.28419 9.33714 8.48601 9.254 8.63509 9.10567L13.8255 3.9125C13.9609 3.77691 14.1217 3.66933 14.2987 3.59593C14.4757 3.52254 14.6654 3.48476 14.857 3.48476C15.0486 3.48476 15.2383 3.52254 15.4153 3.59593C15.5923 3.66933 15.7531 3.77691 15.8884 3.9125L16.8742 4.89885C16.5407 5.23243 4.95372 16.8257 4.64063 17.139C3.03339 18.7537 1.98952 20.8435 1.6639 23.0983L1.37945 25.0961L0.531987 25.944C0.383579 26.093 0.300333 26.2948 0.300514 26.5051C0.300695 26.7154 0.384288 26.9171 0.532953 27.0658C0.681617 27.2145 0.883213 27.2982 1.09351 27.2985C1.30381 27.2988 1.50563 27.2157 1.65471 27.0673L2.50214 26.2195L4.49882 25.9349C6.753 25.6089 8.84187 24.5644 10.4552 22.9566C12.4418 20.9689 24.1578 9.24745 26.0946 7.30869C26.477 6.92629 26.7802 6.47223 26.987 5.9725C27.1937 5.47277 27.2999 4.93717 27.2994 4.39636C27.299 3.85555 27.1919 3.32014 26.9843 2.82077C26.7767 2.32139 26.4726 1.86786 26.0895 1.48611V1.48611ZM15.7171 15.4452L12.148 11.8742C12.25 11.7721 19.5814 4.43673 19.6793 4.33889L23.2486 7.91004C23.053 8.10576 15.8828 15.2795 15.7171 15.4452ZM9.33245 21.8333C7.63473 23.4572 5.40944 24.4161 3.06314 24.5348C3.18175 22.1878 4.14007 19.9616 5.7633 18.2623L11.0253 12.9975L14.5944 16.5685L9.33245 21.8333ZM24.9717 6.18548L24.3712 6.78657L20.802 3.21557L21.3656 2.65165C21.8389 2.16995 22.4837 1.89529 23.159 1.88775C23.8343 1.88021 24.485 2.1404 24.9689 2.61141C25.2041 2.84573 25.3908 3.12413 25.5182 3.43067C25.6457 3.73722 25.7114 4.06589 25.7117 4.39787C25.7119 4.72985 25.6467 5.05862 25.5197 5.36537C25.3928 5.67211 25.2066 5.9508 24.9717 6.18548ZM23.2031 0.300044C23.7386 0.29823 24.2692 0.402057 24.7645 0.605581C25.2598 0.809104 25.71 1.10833 26.0895 1.48611C26.4726 1.86786 26.7767 2.3214 26.9843 2.82077C27.1919 3.32014 27.299 3.85555 27.2994 4.39636C27.2999 4.93717 27.1937 5.47276 26.987 5.97249C26.7802 6.47222 26.477 6.92628 26.0945 7.30868C24.1577 9.24744 12.4417 20.9689 10.4551 22.9566C8.84185 24.5644 6.75297 25.6089 4.4988 25.9349L2.50212 26.2195L1.65469 27.0673C1.50544 27.2148 1.30389 27.2973 1.09406 27.2966C0.884226 27.296 0.683181 27.2123 0.534847 27.0639C0.386513 26.9155 0.302949 26.7144 0.302413 26.5046C0.301877 26.2947 0.384413 26.0932 0.531987 25.944L1.37947 25.0961L1.66392 23.0983C1.98954 20.8435 3.0334 18.7537 4.64063 17.139C4.95372 16.8257 16.5407 5.23244 16.8742 4.89886L15.8884 3.91251C15.7531 3.77692 15.5923 3.66934 15.4153 3.59594C15.2383 3.52254 15.0486 3.48476 14.857 3.48476C14.6654 3.48476 14.4757 3.52254 14.2987 3.59594C14.1217 3.66934 13.9609 3.77692 13.8255 3.91251L8.63509 9.10567C8.48601 9.254 8.28419 9.33714 8.07389 9.33685C7.86359 9.33656 7.662 9.25286 7.51333 9.10412C7.36467 8.95538 7.28108 8.75374 7.28089 8.54344C7.28071 8.33314 7.36396 8.13136 7.51237 7.98236L12.7028 2.7892C12.9856 2.50599 13.3213 2.2813 13.691 2.128C14.0606 1.9747 14.4568 1.89579 14.857 1.89579C15.2572 1.89579 15.6534 1.9747 16.023 2.128C16.3927 2.2813 16.7284 2.50599 17.0111 2.7892L17.9969 3.77555C18.2303 3.54208 19.9721 1.79931 20.243 1.52825C20.6313 1.13877 21.0927 0.829787 21.6006 0.61902C22.1086 0.408254 22.6531 0.299855 23.2031 0.300044V0.300044ZM24.3712 6.78657L24.9717 6.18548C25.2066 5.9508 25.3928 5.67211 25.5198 5.36536C25.6467 5.05861 25.7119 4.72984 25.7117 4.39785C25.7114 4.06586 25.6457 3.73719 25.5182 3.43064C25.3908 3.12409 25.2041 2.84569 24.9689 2.61137C24.7367 2.38046 24.4612 2.19764 24.1582 2.0734C23.8552 1.94916 23.5306 1.88595 23.2031 1.88737C22.8616 1.88761 22.5235 1.95523 22.2082 2.08636C21.8929 2.2175 21.6066 2.40957 21.3656 2.65156L20.802 3.21548L24.3712 6.78648V6.78657ZM15.7171 15.4451C15.8828 15.2794 23.053 8.10567 23.2486 7.90995L19.6793 4.3388C19.5814 4.43664 12.25 11.772 12.148 11.8741L15.7171 15.4451ZM3.06315 24.5347C5.40945 24.416 7.63474 23.4571 9.33246 21.8332L14.5945 16.5684L11.0254 12.9974L5.76336 18.2622C4.14013 19.9616 3.18181 22.1877 3.0632 24.5347H3.06315ZM23.2031 4.43758e-05C22.6136 -0.00124517 22.0297 0.114412 21.4852 0.34032C20.9406 0.566228 20.4464 0.8979 20.0309 1.31613L17.997 3.35117L17.2234 2.57717C16.9128 2.26608 16.544 2.01928 16.1379 1.85089C15.7319 1.6825 15.2966 1.59583 14.857 1.59583C14.4175 1.59583 13.9822 1.6825 13.5762 1.85089C13.1701 2.01928 12.8013 2.26608 12.4907 2.57717L7.30018 7.77028C7.19831 7.87181 7.11746 7.99243 7.06225 8.12523C7.00704 8.25804 6.97856 8.40042 6.97843 8.54425C6.97831 8.68807 7.00654 8.8305 7.06151 8.96341C7.11648 9.09631 7.19712 9.21707 7.29881 9.31878C7.40049 9.42048 7.52124 9.50115 7.65413 9.55614C7.78702 9.61114 7.92945 9.6394 8.07327 9.6393C8.21709 9.63921 8.35949 9.61075 8.4923 9.55557C8.62512 9.50039 8.74575 9.41956 8.8473 9.31771L14.0377 4.12458C14.1452 4.01686 14.2729 3.93139 14.4135 3.87308C14.5541 3.81477 14.7048 3.78475 14.857 3.78475C15.0092 3.78475 15.1599 3.81477 15.3005 3.87308C15.4411 3.93139 15.5688 4.01686 15.6763 4.12458L16.4501 4.89884L4.42843 16.927C2.77539 18.5876 1.70178 20.737 1.36689 23.056L1.09655 24.9548L0.319787 25.7319C0.21792 25.8335 0.13707 25.9541 0.0818629 26.0869C0.0266554 26.2197 -0.00182624 26.3621 -0.0019527 26.5059C-0.00207916 26.6497 0.0261521 26.7921 0.0811259 26.925C0.1361 27.0579 0.216738 27.1787 0.318426 27.2804C0.420114 27.3821 0.540858 27.4628 0.673749 27.5178C0.80664 27.5728 0.949071 27.601 1.09289 27.6009C1.23672 27.6008 1.37911 27.5724 1.51192 27.5172C1.64474 27.462 1.76537 27.3812 1.86692 27.2793L2.64355 26.5023L4.54113 26.2319C6.85958 25.8965 9.00803 24.8222 10.6673 23.1686L13.6989 20.1355L26.3068 7.5207C26.7171 7.11041 27.0424 6.62325 27.2642 6.0871C27.486 5.55094 27.5999 4.97631 27.5994 4.39608C27.5989 3.81586 27.484 3.24142 27.2613 2.70565C27.0386 2.16988 26.7124 1.68328 26.3014 1.2737C25.8945 0.867507 25.4113 0.545844 24.8795 0.327249C24.3478 0.108654 23.778 -0.00255019 23.2031 4.43758e-05V4.43758e-05ZM21.2262 3.21552L21.5778 2.86368C21.7906 2.64909 22.0438 2.47883 22.3227 2.36275C22.6017 2.24667 22.901 2.18708 23.2031 2.18742C23.4913 2.18574 23.777 2.24111 24.0437 2.35034C24.3104 2.45957 24.5529 2.6205 24.7571 2.82385C24.9644 3.03033 25.1289 3.27566 25.2412 3.5458C25.3535 3.81594 25.4114 4.10557 25.4116 4.39813C25.4119 4.69068 25.3544 4.98041 25.2425 5.25072C25.1306 5.52103 24.9665 5.76661 24.7595 5.9734L24.3712 6.36214L21.2262 3.21552H21.2262ZM12.5722 11.8742C13.6602 10.7856 18.5911 5.85201 19.6793 4.76322L22.8245 7.91004L15.7172 15.0209L12.5722 11.8742H12.5722ZM3.41299 24.184C3.56803 22.0384 4.47552 20.0164 5.97549 18.4744L11.0253 13.4219L14.1703 16.5685L9.12029 21.6213C7.58002 23.1224 5.55829 24.0302 3.41299 24.184V24.184Z" fill="#214E70"/>
</g>
<defs>
<clipPath id="clip0">
<rect width="27.5994" height="27.6" fill="white"/>
</clipPath>
</defs>
</svg>
