<svg width="36" height="36" viewBox="0 0 36 36" fill="none" xmlns="http://www.w3.org/2000/svg">
<path fill-rule="evenodd" clip-rule="evenodd" d="M18 0C8.05888 0 0 8.05888 0 18C0 27.9411 8.05888 36 18 36C27.9411 36 36 27.9411 36 18C36 8.05888 27.9411 0 18 0ZM19.4655 23.6821C19.288 23.8692 18.9415 23.907 18.9415 23.907H17.794C17.794 23.907 15.2622 24.0563 13.0319 21.7777C10.5997 19.2916 8.45209 14.3591 8.45209 14.3591C8.45209 14.3591 8.32813 14.0355 8.46242 13.8798C8.61361 13.7037 9.02586 13.6926 9.02586 13.6926L11.7689 13.6751C11.7689 13.6751 12.0271 13.7166 12.2121 13.8503C12.3652 13.9609 12.4507 14.1664 12.4507 14.1664C12.4507 14.1664 12.8939 15.267 13.4808 16.2626C14.6274 18.2066 15.1608 18.6316 15.5496 18.4233C16.1168 18.12 15.9468 15.6754 15.9468 15.6754C15.9468 15.6754 15.9572 14.7886 15.6614 14.3932C15.4322 14.0872 15.0002 13.9977 14.8096 13.9729C14.6547 13.9526 14.9082 13.6004 15.2369 13.4428C15.7308 13.2059 16.6023 13.1921 17.6325 13.2022C18.4354 13.2105 18.6664 13.2594 18.98 13.3341C19.708 13.5065 19.6853 14.0591 19.6362 15.2517C19.6215 15.6084 19.6045 16.0223 19.6045 16.5004C19.6045 16.6078 19.6013 16.7224 19.598 16.8402C19.581 17.4512 19.5615 18.1508 19.9717 18.4113C20.182 18.544 20.6957 18.4306 21.9813 16.2884C22.5908 15.2726 23.0472 14.0789 23.0472 14.0789C23.0472 14.0789 23.1476 13.8659 23.3026 13.7747C23.4613 13.6816 23.6754 13.7101 23.6754 13.7101L26.5621 13.6926C26.5621 13.6926 27.4298 13.5903 27.5697 13.9756C27.7172 14.3784 27.2458 15.3205 26.0663 16.8636C24.9474 18.3277 24.403 18.8668 24.4529 19.3436C24.4895 19.6919 24.8434 20.007 25.5226 20.6254C26.9404 21.9175 27.3204 22.5974 27.4117 22.7607C27.4193 22.7742 27.4248 22.7842 27.4289 22.7907C28.0646 23.8259 26.7236 23.907 26.7236 23.907L24.159 23.942C24.159 23.942 23.6087 24.0489 22.8838 23.5604C22.504 23.3047 22.1329 22.8871 21.7795 22.4893C21.2397 21.8818 20.741 21.3206 20.3154 21.4532C19.6008 21.6763 19.6224 23.1871 19.6224 23.1871C19.6224 23.1871 19.628 23.5106 19.4655 23.6821Z" fill="#214E70"/>
</svg>
