<svg width="36" height="36" viewBox="0 0 36 36" fill="none" xmlns="http://www.w3.org/2000/svg">
<path fill-rule="evenodd" clip-rule="evenodd" d="M18 0C8.05888 0 0 8.05888 0 18C0 27.9411 8.05888 36 18 36C27.9411 36 36 27.9411 36 18C36 8.05888 27.9411 0 18 0ZM25.5011 11.812C26.3273 12.0387 26.9779 12.7066 27.1987 13.5549C27.5999 15.0922 27.5999 18.3 27.5999 18.3C27.5999 18.3 27.5999 21.5076 27.1987 23.045C26.9779 23.8933 26.3273 24.5613 25.5011 24.7881C24.004 25.2 17.9999 25.2 17.9999 25.2C17.9999 25.2 11.9959 25.2 10.4986 24.7881C9.67248 24.5613 9.02186 23.8933 8.80106 23.045C8.39993 21.5076 8.39993 18.3 8.39993 18.3C8.39993 18.3 8.39993 15.0922 8.80106 13.5549C9.02186 12.7066 9.67248 12.0387 10.4986 11.812C11.9959 11.4 17.9999 11.4 17.9999 11.4C17.9999 11.4 24.004 11.4 25.5011 11.812Z" fill="#214E70"/>
<path fill-rule="evenodd" clip-rule="evenodd" d="M16.2002 21.6001V15.6001L21.0002 18.6002L16.2002 21.6001Z" fill="#214E70"/>
</svg>
