<svg width="21" height="21" viewBox="0 0 21 21" fill="none" xmlns="http://www.w3.org/2000/svg">
<path d="M20.6104 20.61C20.3506 20.87 20.0396 21 19.6772 21C19.3149 21 19.0039 20.87 18.7441 20.61L14.6836 16.5455C13.043 17.7634 11.2109 18.3724 9.1875 18.3724C7.94336 18.3724 6.75391 18.1295 5.61914 17.6437C4.48438 17.1579 3.50684 16.5044 2.68652 15.6833C1.86621 14.8622 1.21338 13.8871 0.728027 12.7581C0.242676 11.629 0 10.4384 0 9.18622C0 7.93402 0.242676 6.73998 0.728027 5.60411C1.21338 4.46823 1.86621 3.49316 2.68652 2.67889C3.50684 1.86461 4.48438 1.21457 5.61914 0.728739C6.75391 0.242913 7.94336 0 9.1875 0C10.4316 0 11.6211 0.242913 12.7559 0.728739C13.8906 1.21457 14.8682 1.86461 15.6885 2.67889C16.5088 3.49316 17.1616 4.46823 17.647 5.60411C18.1323 6.73998 18.375 7.9306 18.375 9.17595C18.375 11.2151 17.7666 13.0489 16.5498 14.6774L20.6104 18.7419C20.8701 19.002 21 19.3133 21 19.676C21 20.0386 20.8701 20.35 20.6104 20.61ZM9.1875 2.62757C7.99805 2.62757 6.90088 2.91838 5.896 3.5C4.89111 4.08162 4.09473 4.87879 3.50684 5.8915C2.91895 6.9042 2.625 8.00244 2.625 9.18622C2.625 10.37 2.91895 11.4682 3.50684 12.4809C4.09473 13.4936 4.89111 14.2908 5.896 14.8724C6.90088 15.4541 7.99805 15.7449 9.1875 15.7449C10.377 15.7449 11.4741 15.4541 12.479 14.8724C13.4839 14.2908 14.2803 13.4936 14.8682 12.4809C15.4561 11.4682 15.75 10.37 15.75 9.18622C15.75 8.00244 15.4561 6.9042 14.8682 5.8915C14.2803 4.87879 13.4839 4.08162 12.479 3.5C11.4741 2.91838 10.377 2.62757 9.1875 2.62757Z" fill="#214E70"/>
</svg>
