<?xml version="1.0" encoding="UTF-8" standalone="no"?>
<svg version="1.1" xmlns="http://www.w3.org/2000/svg" xmlns:xlink="http://www.w3.org/1999/xlink">
    <symbol viewBox="0 0 24 24" id="svg-icon-timer">
        <path d="M1011,40a12,12,0,1,0,12,12A12,12,0,0,0,1011,40Zm0.75,22.462V61h-1.5v1.462a10.5,10.5,0,0,1-9.71-9.712H1002v-1.5h-1.46a10.5,10.5,0,0,1,9.71-9.712V43h1.5V41.538a10.5,10.5,0,0,1,9.71,9.712H1020v1.5h1.46A10.5,10.5,0,0,1,1011.75,62.462Zm4.77-13.649a0.379,0.379,0,0,1-.14.513l-3.96,2.287a1.276,1.276,0,0,1,.08.388,1.5,1.5,0,0,1-3,0l-4.07-2.35a0.751,0.751,0,1,1,.75-1.3l4.09,2.364a1.436,1.436,0,0,1,1.8.237l3.94-2.276A0.375,0.375,0,0,1,1016.52,48.812Z" transform="translate(-999 -40)"/>
    </symbol>
</svg>