<svg width="98" height="60" viewBox="0 0 98 60" fill="none" xmlns="http://www.w3.org/2000/svg">
<g clip-path="url(#clip0)">
<path d="M97.8664 30.1669C97.4656 28.8974 96.1295 28.2292 94.8603 28.6301C92.8228 29.2649 91.0525 29.5321 89.2822 29.5655C89.2154 29.5655 89.1152 29.5655 89.0484 29.5655C88.9816 29.5655 88.8814 29.5655 88.7812 29.5655C88.7144 29.5655 88.6142 29.5655 88.514 29.5655C88.3804 29.5655 88.2468 29.5655 88.1132 29.5655C86.4765 29.5321 83.1697 29.3985 78.5603 28.8306H78.5269C76.9237 28.6969 75.3204 28.3963 73.6503 28.0956C72.5147 27.8951 71.379 27.6947 70.1766 27.5277C66.7028 27.0266 63.229 26.2582 59.8555 25.2225C57.818 24.5878 55.7471 23.786 53.7764 23.0511C53.6428 22.9842 53.4758 22.9508 53.3422 22.884C52.6408 22.6168 51.8391 22.884 51.4383 23.5188C50.9373 24.3205 50.8705 25.0555 51.0375 25.6903C51.2713 26.6591 52.0061 27.4609 52.9414 27.8283C54.7451 28.4965 56.5821 29.198 58.4526 29.7994C62.06 30.9352 65.801 31.7704 69.5419 32.2715C70.6442 32.4386 71.7464 32.639 72.8487 32.8061C73.8841 32.9731 74.9196 33.1735 75.9884 33.3406C74.3851 34.3094 72.6149 35.178 70.711 35.9464C66.7028 37.5165 62.2938 38.4853 58.319 38.6524C53.4424 38.8528 48.1984 38.0845 42.7873 36.4141C43.1881 35.5455 43.589 34.6769 43.9898 33.8417C45.259 31.2359 46.5951 28.5967 48.1316 26.0243C49.0334 24.5544 51.2045 21.08 53.2086 18.9753C54.5447 17.4386 56.0477 16.0021 57.7178 14.6992C61.4588 11.7259 66.135 9.52099 70.4772 8.61898C73.9509 7.91742 78.8943 7.75038 82.7355 10.9575C85.0736 12.8952 86.3429 15.2003 86.5099 17.7058C86.6435 20.0778 85.8085 22.7838 84.105 25.4898C83.9046 26.0577 83.604 27.1602 84.2052 27.6947C85.0068 28.3963 87.2113 28.7637 88.2802 27.7949C90.4179 24.3205 91.4533 20.7793 91.2529 17.4386C91.0191 13.5299 89.182 10.1223 85.7751 7.28268C81.5999 3.80829 75.9884 2.63903 69.5419 3.94192C64.4649 4.97756 59.0873 7.51653 54.7451 10.9575C51.2045 13.7637 48.4322 16.9709 46.0941 20.3784C45.9271 20.345 45.7601 20.2782 45.5931 20.2448C35.8064 17.6056 25.8862 17.8729 17.636 20.9798C16.1663 21.5477 14.7635 22.1825 13.4274 22.884C9.58624 21.4141 6.14588 20.5455 2.70553 20.1446C1.33607 19.9776 0.167014 20.9464 6.9933e-06 22.2493C-0.133599 23.5522 0.801643 24.7214 2.1043 24.8885C4.10839 25.1223 6.14588 25.5232 8.31698 26.158C9.61964 26.5588 11.4567 27.1936 13.728 28.1624C13.728 28.1624 13.728 28.1624 13.7614 28.1624C14.5631 28.4965 15.3981 28.864 16.2331 29.2649C18.8385 30.4675 21.4438 31.8707 23.9823 33.207C26.788 34.6769 29.6939 36.247 32.6333 37.5833C32.7335 37.6168 32.8337 37.6836 32.9339 37.717C33.1009 37.7838 33.2345 37.8506 33.4015 37.9174C33.5017 37.9508 33.6019 38.0176 33.7021 38.0511C33.7021 38.0511 33.7021 38.0511 33.7355 38.0511C34.2365 38.2515 34.9046 38.4185 35.3054 38.0845C36.1404 37.3829 36.3742 36.4475 36.4076 35.6791C36.441 34.6769 35.8398 33.7749 34.938 33.374C31.9986 32.0377 29.0593 30.5009 26.2202 28.9642C23.9489 27.7615 21.6108 26.5254 19.2393 25.3896C26.3204 22.717 34.8712 22.4163 43.3886 24.5544C42.0191 26.9263 40.8166 29.3317 39.6476 31.6702C39.2468 32.5054 38.846 33.374 38.4451 34.2092C38.0777 35.1446 37.1091 37.4497 35.3388 40.7237C35.3388 40.7237 35.3388 40.7571 35.3054 40.7571C33.8691 43.5633 32.2659 46.1357 30.1282 48.4074C26.5208 52.2493 20.6755 54.0533 15.2979 53.0176C12.7594 52.5499 8.21678 50.9798 6.14588 45.835C4.77642 42.4608 4.77642 39.2203 6.11248 36.1802C7.01432 34.3094 8.45059 32.4052 10.3545 30.7014C10.6551 30.2671 11.2897 29.0978 10.7219 28.3963C10.0539 27.5611 7.98297 26.7927 6.71371 27.5277C4.54261 29.5989 2.83913 31.8707 1.77029 34.3428C-0.100197 38.5856 -0.100198 43.0956 1.73688 47.6724C3.87458 52.9508 8.48399 56.6257 14.3961 57.7615C15.6653 57.9954 16.968 58.129 18.2706 58.129C24.0157 58.129 29.7607 55.7905 33.6019 51.7482C36.7083 48.4742 38.8126 44.6323 40.683 40.7571C40.9168 40.8239 41.1507 40.8907 41.3511 40.9575C47.2631 42.7949 53.0082 43.5967 58.4192 43.3963C66.0348 43.0956 76.289 40.0889 83.0695 33.9753C83.1697 33.9753 83.2365 33.9753 83.3368 34.0087C87.4451 34.4096 91.3197 34.7771 96.3299 33.1735C97.5992 32.7392 98.2672 31.4029 97.8664 30.1669Z" fill="#214E70"/>
<path d="M12.5254 7.61685L14.0619 13.0957C14.9304 16.2026 15.4648 18.0734 15.6318 18.7082C15.6986 18.9754 15.8322 19.1425 15.9992 19.2761C16.1662 19.3763 16.3666 19.3763 16.6338 19.3095H16.6672C17.2351 19.1425 17.9699 18.942 18.8717 18.6748C19.473 18.5077 20.141 18.3073 20.8758 18.1068C21.6107 17.9064 22.1785 17.4721 22.5793 16.8039C23.1805 15.8017 23.3141 14.7327 23.0135 13.5634C22.9467 13.363 22.8799 13.1291 22.7797 12.9287C22.4791 12.2271 22.0449 11.6592 21.4436 11.2583C21.2766 11.1246 21.1764 10.991 21.1096 10.8574C21.0762 10.7238 21.0762 10.5901 21.1096 10.4565C21.1096 10.4565 21.1096 10.4231 21.143 10.3897C21.143 10.3563 21.143 10.3229 21.143 10.3229C21.2766 9.62131 21.2766 8.91975 21.0762 8.285C20.976 7.98433 20.8758 7.68367 20.7088 7.41641C20.5084 7.08233 20.308 6.74825 20.0408 6.48099C19.7736 6.21373 19.473 5.97988 19.1055 5.77943C18.7381 5.57899 18.3373 5.44536 17.9031 5.41195C17.5023 5.37854 17.0681 5.41195 16.6672 5.54558C16.6004 5.57899 16.567 5.57899 16.5336 5.6124C16.3332 5.67921 15.231 5.97988 13.1935 6.58122C13.0599 6.61462 12.9263 6.64803 12.8595 6.68144C12.492 6.81507 12.3584 7.08233 12.4252 7.44981L12.5254 7.61685ZM20.0074 12.7616C20.308 12.8952 20.5418 13.0957 20.7422 13.3964C20.8758 13.5968 20.976 13.8307 21.0428 14.0311C21.143 14.3318 21.143 14.6659 21.1096 14.9665C21.0094 15.6013 20.6754 16.0022 20.0742 16.2026C19.8404 16.2694 19.5398 16.3696 19.1723 16.4699C18.8049 16.5701 18.3707 16.7037 17.9031 16.8373C17.5357 16.9376 17.2685 16.8039 17.1683 16.403L17.1015 16.1692C17.1015 16.1358 17.0681 16.0022 17.0012 15.8017L16.8342 15.2004L16.5002 14.0311C16.4 13.6302 16.5336 13.3964 16.9344 13.2627C17.4021 13.1291 17.8029 12.9955 18.1703 12.8952C18.5377 12.795 18.8383 12.7282 19.0721 12.6614C19.3728 12.628 19.7068 12.6614 20.0074 12.7616ZM14.9638 8.18478C15.0306 8.05115 15.231 7.95093 15.5316 7.88411C15.6318 7.8507 15.7988 7.8173 15.9992 7.75048C16.1996 7.68367 16.4 7.65026 16.567 7.61685C16.734 7.58344 16.901 7.51663 17.0346 7.48322C17.068 7.44981 17.1349 7.44981 17.1683 7.41641C17.5357 7.31618 17.8363 7.34959 18.1703 7.48322C18.5043 7.65026 18.7715 7.91752 18.9719 8.2516C19.0721 8.41863 19.1055 8.58567 19.1723 8.75271C19.2726 9.08679 19.2725 9.38745 19.2057 9.72153C19.0721 10.3229 18.7715 10.6903 18.2371 10.8574C18.0701 10.9242 17.8363 10.991 17.5357 11.0578C17.2351 11.1581 16.8342 11.2583 16.3332 11.3919C15.9658 11.4921 15.732 11.3585 15.6318 10.991C15.5984 10.8908 15.565 10.7572 15.5316 10.6235C15.4982 10.4899 15.4648 10.3563 15.398 10.1892C15.3646 10.0222 15.3312 9.92197 15.2978 9.82175L15.0306 8.85293C14.897 8.55226 14.897 8.31841 14.9638 8.18478Z" fill="#214E70"/>
<path d="M24.2829 7.71702C24.2829 7.71702 24.3497 8.11791 24.4499 8.91969C24.4833 9.32058 24.5501 9.82169 24.6169 10.3896C24.8173 12.1602 24.9509 13.0622 24.9509 13.0622C25.1513 14.6324 26.0198 15.7348 27.5896 16.3028C28.2911 16.57 29.0259 16.6368 29.7941 16.5366C30.0279 16.5032 30.2618 16.4698 30.4956 16.403C31.5978 16.1023 32.4663 15.5344 33.0675 14.6658C33.2011 14.4988 33.2345 14.3317 33.2345 14.1981C33.2011 14.0645 33.1009 13.9308 32.9339 13.7972C32.8003 13.697 32.5999 13.5633 32.2992 13.4297C32.0988 13.2961 31.8984 13.2627 31.7982 13.2627C31.6646 13.2627 31.531 13.3963 31.364 13.5633C30.8964 14.0979 30.2952 14.3985 29.5937 14.4988C29.4601 14.5322 29.2931 14.5322 29.1595 14.5322C28.5583 14.5322 28.0573 14.3651 27.6898 14.031C27.3224 13.697 27.0886 13.2293 26.9884 12.6613L26.6544 10.0555L26.3204 7.34953C26.2202 6.51435 26.5208 5.8796 27.2222 5.4453C27.623 5.17804 28.0239 5.04441 28.4247 4.9776C29.0259 4.91078 29.6271 5.04441 30.2284 5.4119C30.2618 5.4119 30.2618 5.4453 30.3286 5.47871C30.362 5.51212 30.3954 5.54553 30.4288 5.54553C30.5958 5.64575 30.7294 5.67916 30.863 5.64575C30.9966 5.64575 31.0968 5.57893 31.2304 5.47871C31.4642 5.27827 31.6312 5.07782 31.7982 4.91078C31.9318 4.74375 31.9986 4.57671 31.9986 4.44308C31.9652 4.30945 31.8984 4.17582 31.7648 4.04219C31.6646 3.94196 31.5644 3.87515 31.4642 3.80833C30.3954 3.14018 29.3265 2.87292 28.2243 3.00655C27.7232 3.07337 27.1888 3.2404 26.6544 3.47426C26.287 3.6413 25.953 3.87515 25.6189 4.14241C25.3183 4.40967 25.0511 4.71034 24.8173 5.07782C24.5835 5.4453 24.4165 5.84619 24.3163 6.3139C24.2161 6.7482 24.2161 7.1825 24.2829 7.6502C24.2829 7.6502 24.2829 7.68361 24.2829 7.71702Z" fill="#214E70"/>
<path d="M35.9066 15.8684L41.7519 16.2692C41.8521 16.2692 41.9189 16.2692 41.9857 16.2692C42.1527 16.2692 42.2863 16.2358 42.3865 16.1356C42.4867 16.0354 42.5535 15.9352 42.5869 15.7681C42.5869 15.6679 42.6203 15.5343 42.6203 15.4006C42.6203 15.2336 42.6537 15.0332 42.6537 14.8327C42.6537 14.6991 42.6203 14.5655 42.5201 14.4652C42.4199 14.365 42.3197 14.2982 42.1527 14.2982C42.0859 14.2982 41.9523 14.2648 41.8187 14.2648L37.9775 14.0309C37.7103 14.0309 37.5433 13.9641 37.4431 13.8305C37.3429 13.7303 37.3095 13.5298 37.3095 13.2626L37.4097 11.7258C37.4431 11.2915 37.4765 10.9908 37.4765 10.924C37.5099 10.59 37.7103 10.4229 38.0777 10.4229L38.4117 10.4563C39.2468 10.5231 39.848 10.5566 40.2822 10.59C40.7164 10.6234 40.9836 10.3895 41.017 9.95521C41.017 9.95521 41.017 9.85499 41.0504 9.68795V9.42069C41.0504 9.12003 41.017 8.88617 40.9168 8.75254C40.8166 8.61891 40.6162 8.5521 40.3156 8.5521L38.3449 8.41847C38.1111 8.41847 37.9107 8.35165 37.8439 8.21802C37.7437 8.1178 37.7103 7.91735 37.7103 7.6835L37.8439 5.4786C37.8773 5.21134 37.9107 5.01089 38.0443 4.94408C38.1445 4.84386 38.3449 4.81045 38.6121 4.84386C39.0129 4.87726 39.6476 4.91067 40.4826 4.97749C41.3176 5.0443 41.9523 5.07771 42.3531 5.11112C42.5535 5.11112 42.6871 5.14452 42.7539 5.14452C42.9209 5.14452 43.0545 5.07771 43.1547 4.97749C43.2549 4.87726 43.3217 4.74363 43.3551 4.57659C43.3551 4.44296 43.3885 4.30933 43.3885 4.1757C43.3885 4.04207 43.3885 3.90844 43.4219 3.77481C43.4219 3.40733 43.2549 3.20688 42.8875 3.10666C42.8207 3.10666 42.7205 3.07325 42.5869 3.07325L36.9087 2.67236C36.775 2.67236 36.7082 2.67236 36.6414 2.67236C36.274 2.67236 36.0402 2.87281 36.0068 3.24029C36.0068 3.2737 35.9734 3.40733 35.9734 3.60778L35.606 9.25366L35.1718 15.0332C35.1384 15.3338 35.2052 15.5677 35.3054 15.6679C35.4056 15.8015 35.606 15.8684 35.9066 15.8684Z" fill="#214E70"/>
<path d="M57.6842 53.4852C57.4504 53.2179 57.3168 53.0175 57.3168 52.9173C57.3168 52.8171 57.4504 52.6166 57.6842 52.3159C58.6195 51.0465 58.7531 49.7102 58.085 48.3738C57.417 47.0041 56.248 46.2692 54.6447 46.1689C53.175 46.1689 52.006 46.6701 51.1041 47.7725C50.8035 48.1066 50.8703 48.4073 51.2377 48.6745C51.3045 48.7413 51.4382 48.8081 51.6052 48.875C51.9726 49.0754 52.2398 49.1756 52.34 49.1756C52.4736 49.1756 52.674 49.042 53.008 48.7413C53.342 48.4407 53.7429 48.307 54.2105 48.2402C54.6781 48.2068 55.0789 48.2736 55.4463 48.4741C56.1144 48.875 56.4484 49.3761 56.415 50.0108C56.3816 50.7458 56.0142 51.2803 55.3461 51.581C54.9787 51.748 54.6447 51.8148 54.3107 51.7814C54.1437 51.748 54.0101 51.748 53.8765 51.7814C53.7095 51.8148 53.5758 51.8482 53.4756 51.9819C53.3754 52.0821 53.3086 52.2157 53.3086 52.3828C53.2752 52.65 53.2752 52.9173 53.2752 53.2179C53.2752 53.385 53.342 53.552 53.4422 53.6522C53.5424 53.7525 53.6761 53.8193 53.8431 53.8527C53.9099 53.8527 54.0101 53.8527 54.1437 53.8861C54.6113 53.8861 55.0121 54.0197 55.4129 54.2202C56.1144 54.5877 56.4818 55.189 56.4818 55.9574C56.5152 56.6923 56.1478 57.2603 55.4463 57.6612C54.8785 57.9618 54.2773 58.062 53.5758 57.9284C53.0748 57.8282 52.6406 57.6277 52.3066 57.2937C52.0394 57.0264 51.7722 56.9596 51.5384 57.0932C51.2043 57.2603 50.8703 57.4941 50.6031 57.7614C50.3693 57.9618 50.3693 58.1957 50.5697 58.4629C50.6031 58.5298 50.6699 58.5966 50.7701 58.6968C51.5718 59.4986 52.5404 59.9329 53.7429 60.0331C54.9453 60.1333 56.0142 59.8326 56.9494 59.1645C57.4504 58.797 57.8512 58.3627 58.1184 57.8616C58.3857 57.3605 58.5193 56.826 58.5527 56.3249C58.5861 55.8237 58.4859 55.3226 58.3523 54.8215C58.2521 54.2536 58.0182 53.8527 57.6842 53.4852Z" fill="#214E70"/>
<path d="M70.611 57.1937C70.1768 56.1915 69.5087 54.7216 68.6069 52.7839C67.7385 50.8463 67.0704 49.3764 66.6362 48.4076C66.536 48.1737 66.369 47.8062 66.1352 47.3051C65.9014 46.804 65.7344 46.4699 65.6342 46.2027C65.534 45.9688 65.4004 45.8018 65.2333 45.7015C65.0663 45.6013 64.8659 45.6013 64.5987 45.6347L63.5633 45.8018C63.1959 45.8686 62.962 46.1024 62.8952 46.4699C62.8952 46.5033 62.8618 46.6035 62.8618 46.804C62.7616 47.6058 62.6614 48.8084 62.461 50.4454C62.294 52.049 62.1604 53.2851 62.0602 54.0868C61.8598 56.0579 61.6594 57.7283 61.5258 59.098C61.4924 59.2984 61.5592 59.4655 61.6594 59.5657C61.7596 59.6659 61.9266 59.6993 62.0936 59.6993C62.2606 59.6659 62.5278 59.6325 62.8618 59.5991C63.0956 59.5657 63.2627 59.4655 63.3629 59.3318C63.4631 59.1982 63.5299 58.9978 63.5299 58.7639C63.5967 57.8619 63.9975 52.7171 64.0643 51.9153C64.1311 51.1136 64.1645 50.5122 64.1979 50.0779L64.2647 49.3764C64.2647 49.2762 64.2981 49.2093 64.3315 49.1425C64.3983 49.0757 64.4651 49.0089 64.5653 49.0089C64.6655 49.0089 64.7323 49.0089 64.7991 49.0757C64.8325 49.1091 64.8659 49.1759 64.9327 49.2761C65.1331 49.7439 65.4004 50.412 65.8012 51.314C66.202 52.216 68.5401 57.7617 68.6403 58.0623C68.7739 58.3964 69.0077 58.5635 69.3417 58.53C69.5421 58.53 69.7425 58.4966 69.943 58.4632C70.11 58.4298 70.277 58.3964 70.4774 58.363C70.611 58.3296 70.7446 58.2628 70.8114 58.1292C70.8782 57.9955 70.8782 57.8619 70.8114 57.7283C70.8114 57.6949 70.7446 57.5278 70.611 57.1937Z" fill="#214E70"/>
<path d="M80.1971 50.0778C80.1303 49.8774 80.0301 49.6435 79.9299 49.3763C79.5959 48.5411 79.4289 48.1068 79.4289 48.1068C79.4289 48.0734 79.2619 47.6391 78.9278 46.7705C78.8276 46.4698 78.7274 46.2359 78.6272 46.0355C78.4602 45.6346 78.3934 45.4342 78.3934 45.4342C77.8924 44.1981 76.9572 43.3963 75.6211 43.0288C74.6859 42.8284 73.8174 42.8618 72.9824 43.1959C72.8822 43.2293 72.8154 43.2627 72.7486 43.2961C71.8133 43.7304 71.1119 44.3317 70.6443 45.1335C69.9762 46.2359 69.876 47.3384 70.3103 48.4408C70.6777 49.3763 71.0117 50.3117 71.3791 51.2137C71.7465 52.1491 72.1139 53.0511 72.4814 53.9865C72.8488 54.8885 73.4834 55.5567 74.3518 55.9575C75.5543 56.4921 76.7567 56.5255 77.9258 56.0578C78.1596 55.9576 78.36 55.8573 78.5938 55.7237C79.4957 55.2226 80.1303 54.4876 80.4977 53.5188C80.8317 52.55 80.8317 51.5812 80.4643 50.6123C80.4309 50.6457 80.3307 50.4453 80.1971 50.0778ZM78.6272 52.2493C78.5938 52.6168 78.4936 52.9509 78.3266 53.2515C78.1596 53.5522 77.8924 53.7861 77.5584 53.9865C77.4582 54.0533 77.3246 54.1201 77.191 54.1869C76.9572 54.2872 76.6899 54.3206 76.4227 54.354C75.9217 54.3874 75.4875 54.2872 75.0867 54.0867C74.7193 53.8863 74.452 53.5856 74.285 53.1513C74.2516 53.1179 74.2516 53.0511 74.2182 53.0177V52.9843L73.283 50.5455L72.3143 48.04C72.0805 47.472 72.0805 46.9375 72.2809 46.4364C72.4814 45.9353 72.8488 45.5678 73.3832 45.3005C73.4834 45.2337 73.5836 45.2003 73.6838 45.1669C74.2516 44.933 74.8195 44.933 75.3205 45.1335C75.8883 45.3673 76.2891 45.7348 76.5229 46.3028L77.3914 48.5411C77.4582 48.7415 77.5584 49.0088 77.7254 49.3763C77.859 49.7437 77.9926 50.0778 78.0928 50.3785C78.193 50.6792 78.3266 50.9464 78.4268 51.2137C78.4602 51.2471 78.4602 51.3139 78.4936 51.3473C78.5938 51.6146 78.6272 51.9152 78.6272 52.2493Z" fill="#214E70"/>
<path d="M93.4906 46.2698L90.451 41.4257L88.0795 37.6841C87.6787 37.0493 87.4115 36.615 87.1777 36.2809C86.9439 35.9135 86.6433 35.8466 86.2758 36.0471L85.1736 36.7486C84.9064 36.9157 84.8062 37.1829 84.873 37.517C84.873 37.5838 84.9398 37.7509 85.0066 38.0181C85.2404 38.7865 85.6078 39.9558 86.0754 41.5259C86.5431 43.0627 86.9105 44.2319 87.1443 45.0337C87.1777 45.1674 87.2111 45.2342 87.2111 45.301C87.2111 45.301 87.2445 45.3678 87.2445 45.468C87.2779 45.5682 87.2779 45.6351 87.2779 45.6685C87.2779 45.7353 87.2779 45.7687 87.2111 45.8021C87.1777 45.8021 87.1777 45.8355 87.1443 45.8355C87.1109 45.8355 87.1109 45.8355 87.0775 45.8355C87.0441 45.8355 87.0441 45.8021 87.0107 45.8021C86.9773 45.8021 86.9773 45.7687 86.9439 45.7353C86.9105 45.7019 86.9105 45.7019 86.8771 45.6685C86.8771 45.6685 86.8103 45.6351 86.7769 45.5682C86.7435 45.5348 86.7101 45.5014 86.7101 45.5014C86.7101 45.5014 86.7101 45.5014 86.6767 45.468C86.6433 45.4346 86.6099 45.4012 86.5765 45.3678C86.1089 44.9335 85.374 44.2653 84.4388 43.3967C83.5035 42.5282 82.7687 41.86 82.3011 41.4257C81.633 40.8244 81.1988 40.4235 80.965 40.223C80.7646 40.056 80.5976 39.9558 80.4306 39.9224C80.2636 39.9224 80.0632 39.9558 79.8628 40.1228C79.462 40.3901 79.1947 40.5237 79.1279 40.5905C79.0611 40.6239 79.0277 40.6573 78.9609 40.6907C78.7271 40.8578 78.5935 41.0248 78.5601 41.1919C78.5267 41.3923 78.6269 41.6261 78.7939 41.9602C80.1634 44.1317 82.2343 47.3723 84.9398 51.7152C85.04 51.8489 85.0734 51.9491 85.1402 52.0159C85.374 52.3166 85.6412 52.3834 85.9752 52.2164L86.5097 51.8823C86.7769 51.7152 86.9105 51.5482 86.9439 51.3812C86.9773 51.2141 86.9105 51.0137 86.7435 50.7464L84.038 46.4703L83.8709 46.203C83.8709 46.203 83.8375 46.1362 83.7707 46.036C83.7039 45.9357 83.6705 45.8689 83.6371 45.8021C83.6037 45.7353 83.6371 45.6685 83.6705 45.6351C83.7039 45.6017 83.7707 45.6017 83.8041 45.6351C83.8709 45.6685 83.9378 45.7353 84.0046 45.8021C84.0714 45.8689 84.1382 45.9357 84.1716 45.9357C84.1716 45.9357 84.205 45.9691 84.205 46.0025C84.2384 46.0359 84.2384 46.036 84.2384 46.036C84.372 46.1696 84.6392 46.4034 84.9732 46.7709C85.3072 47.105 85.541 47.3388 85.6746 47.4391L88.2131 49.9112C88.5472 50.2453 88.8812 50.2787 89.282 50.0449L89.9834 49.6106C90.284 49.4101 90.3842 49.1429 90.3174 48.7754C90.3174 48.742 90.3174 48.7086 90.284 48.6751C90.284 48.6417 90.2506 48.6083 90.2506 48.5749C90.2506 48.5415 90.2172 48.5081 90.2172 48.4747C90.0502 48.007 89.783 47.1718 89.3488 46.0025C88.948 44.8333 88.6474 43.9647 88.4803 43.3633C88.4469 43.2631 88.4135 43.1295 88.3467 42.9625C88.3467 42.9625 88.3467 42.929 88.3133 42.8956C88.3133 42.8622 88.2799 42.8288 88.2799 42.7954C88.2799 42.762 88.2799 42.7286 88.3133 42.7286C88.3133 42.6952 88.3468 42.6618 88.4136 42.6618C88.447 42.6618 88.4804 42.6618 88.5138 42.6618C88.5472 42.6618 88.5806 42.6952 88.5806 42.6952C88.5806 42.7286 88.614 42.7286 88.6474 42.762C88.6808 42.7954 88.6808 42.8288 88.6808 42.8288C88.781 42.9625 88.8478 43.0627 88.9146 43.1629L91.6535 47.4725C91.7537 47.6061 91.8205 47.7397 91.8539 47.8066C91.9541 47.9402 92.0877 48.0404 92.2547 48.0738C92.3883 48.1072 92.5553 48.0738 92.7223 48.007C92.8225 47.9736 92.8893 47.9068 92.9895 47.84C93.1232 47.7397 93.2902 47.6395 93.4238 47.5393C93.5574 47.4391 93.6576 47.3054 93.6576 47.1718C93.691 47.0382 93.6576 46.8711 93.5574 46.7041C93.6242 46.5037 93.5574 46.4034 93.4906 46.2698Z" fill="#214E70"/>
<path d="M49.6345 46.2028C49.5343 46.1694 49.3339 46.136 49.1335 46.1026C48.8997 46.0692 48.7327 46.0358 48.5991 46.0024C48.5991 46.0024 48.5991 46.0024 48.5657 46.0024C48.2317 45.9356 47.9979 46.0692 47.7641 46.3365C47.6973 46.4033 47.597 46.6037 47.43 46.9044C47.1294 47.4055 46.7286 48.1405 46.1608 49.1427C45.593 50.1449 45.1587 50.8799 44.8915 51.381C44.8915 51.4144 44.8581 51.4144 44.8581 51.4812C44.8247 51.5147 44.8247 51.5481 44.7913 51.5815C44.7579 51.6149 44.7579 51.6149 44.7245 51.6483C44.6911 51.6817 44.6577 51.6817 44.6243 51.7151C44.5909 51.7151 44.5575 51.7151 44.5241 51.7151C44.4907 51.7151 44.4239 51.6817 44.3905 51.6817C44.3571 51.6483 44.3237 51.6483 44.3237 51.6149C44.3237 51.5815 44.2903 51.5481 44.2903 51.5147C44.2903 51.4812 44.2903 51.4478 44.2569 51.4144C44.2569 51.3476 44.2569 51.3142 44.2569 51.3142C44.1901 50.9133 44.0899 50.2786 43.9229 49.4768C43.7893 48.6416 43.6557 48.0403 43.5889 47.606C43.5555 47.3721 43.4887 47.0714 43.4219 46.6371C43.3551 46.2028 43.2883 45.9022 43.2549 45.6683C43.188 45.2674 42.9876 45.0336 42.687 44.9668C42.5868 44.9334 42.4532 44.9 42.2528 44.8665C42.0524 44.8331 41.8186 44.7997 41.518 44.7329C41.4178 44.7329 41.2842 44.7329 41.184 44.7997C41.0838 44.8665 41.0169 44.9334 40.9835 45.0336C40.9835 45.067 40.9501 45.1004 40.9501 45.1672C40.9501 45.2006 40.9501 45.2674 40.9835 45.3342C40.9835 45.4011 41.017 45.4345 41.017 45.4345C41.9856 49.8443 42.6202 52.5837 42.854 53.6527C42.9542 54.087 42.8206 54.1539 42.6202 54.4879C42.6202 54.5213 42.5868 54.5547 42.5534 54.5882L40.7831 57.2942C40.6161 57.528 40.5827 57.7285 40.6161 57.8621C40.6161 57.9289 40.6495 57.9957 40.7163 58.0625C40.8499 58.2296 41.0504 58.3298 41.2508 58.3632L41.7518 58.4634C42.2194 58.5637 42.3864 58.5637 42.6202 58.263C42.6536 58.1962 42.7538 58.0959 42.8206 57.9623C42.8206 57.9623 48.6325 49.0425 49.9686 46.9712C50.1022 46.7708 50.1022 46.6037 50.0688 46.4701C50.002 46.3365 49.8684 46.2697 49.6345 46.2028Z" fill="#214E70"/>
<path d="M37.6433 1.7706L38.9126 1.87082C39.0462 1.87082 39.1798 1.7706 39.1798 1.63697L39.28 0.367483C39.28 0.233853 39.1798 0.100223 39.0462 0.100223L37.7769 0C37.6433 0 37.5097 0.100223 37.5097 0.233853L37.4095 1.50334C37.3761 1.63697 37.5097 1.7706 37.6433 1.7706Z" fill="#214E70"/>
<path d="M40.7499 2.03818L42.0192 2.1384C42.1528 2.1384 42.2864 2.03818 42.2864 1.90455L42.3866 0.635061C42.3866 0.501431 42.2864 0.367801 42.1528 0.367801L40.8835 0.267578C40.7499 0.267578 40.6163 0.367801 40.6163 0.501431L40.5161 1.77092C40.5161 1.90455 40.6163 2.00477 40.7499 2.03818Z" fill="#214E70"/>
</g>
<defs>
<clipPath id="clip0">
<rect width="98" height="60" fill="white"/>
</clipPath>
</defs>
</svg>
